<?xml version="1.0" encoding="UTF-8" standalone="no"?>
<svg
   xmlns:dc="http://purl.org/dc/elements/1.1/"
   xmlns:cc="http://creativecommons.org/ns#"
   xmlns:rdf="http://www.w3.org/1999/02/22-rdf-syntax-ns#"
   xmlns:svg="http://www.w3.org/2000/svg"
   xmlns="http://www.w3.org/2000/svg"
   version="1.1"
   viewBox="0 0 1412.17331 453.53828"
   id="LOGO">
  <metadata
     id="metadata87">
    <rdf:RDF>
      <cc:Work
         rdf:about="">
        <dc:format>image/svg+xml</dc:format>
        <dc:type
           rdf:resource="http://purl.org/dc/dcmitype/StillImage" />
        <dc:title></dc:title>
      </cc:Work>
    </rdf:RDF>
  </metadata>
  <defs
     id="defs4">
    <style
       id="style2"> .cls-1 { fill: #2e2d62; } .cls-2 { fill: #fff; } .cls-3 { fill: #00bed5; } .cls-4 { fill: #008aad; } </style>
  </defs>
  <g
     id="g970">
    <g
       id="g10">
      <rect
         style="fill:#2e2d62"
         id="rect6"
         height="283.46326"
         width="283.46326"
         y="85.035538"
         x="85.039528"
         class="cls-1" />
      <path
         style="fill:#ffffff"
         id="path8"
         d="m 337.30668,116.23152 h -33.05126 l -44.43267,47.31625 v -47.31625 h -64.20688 v 62.81185 c 0,13.44694 -9.95655,21.25377 -23.16457,21.25377 -13.20802,0 -23.165,-7.80683 -23.165,-21.25377 V 116.23152 H 116.235 v 63.29176 c 0,28.34575 22.88515,44.60632 48.70141,47.24386 H 116.235 v 110.53561 h 33.05127 v -40.96583 h 14.43776 l 30.5426,40.96562 h 143.04 v -22.32587 h -38.742 v -65.88361 h 38.742 v -29.16162 l -47.37411,-48.50869 47.37411,-48.35553 z m -110.53561,76.72031 v 51.28164 c -7.03742,-11.88409 -23.22232,-17.4019 -47.24379,-17.46236 21.43509,-2.17684 41.25093,-13.74151 47.24379,-33.81928 z m -77.48476,56.14123 h 30.24085 c 12.43256,0 17.471,4.81924 17.471,12.38239 0,7.56315 -5.03842,12.5356 -17.471,12.5356 h -30.24085 z m 116.22714,65.88361 h -38.74238 v 15.49018 l -27.26922,-35.73877 c 20.76255,-3.82232 31.48464,-14.55826 31.48464,-33.25263 a 36.83265,36.83265 0 0 0 -1.95518,-12.38239 h 36.48214 z m 38.742,-88.20953 h -44.4327 v -47.44755 z"
         class="cls-2" />
    </g>
    <g
       id="g16">
      <polygon
         style="fill:#00bed5"
         id="polygon12"
         points="368.503,49.507 368.503,85.033 368.503,368.499 564.289,368.499 564.289,226.666 425.967,85.033 391.274,49.507 "
         class="cls-3" />
      <polygon
         style="fill:#008aad"
         id="polygon14"
         points="564.289,368.499 651.967,368.499 651.967,85.033 425.967,85.033 564.289,226.666 "
         class="cls-4" />
    </g>
    <g
       id="g80"
       style="fill:#ffffff">
      <path
         style="fill:#ffffff"
         id="path18"
         d="M 785.94727,172.44775 H 775.56152 V 135.0127 H 774.918 l -14.00781,30.99462 h -10.707 L 736.11426,135.0127 h -0.64356 v 37.43505 H 725.085 v -56.35351 h 13.042 l 17.14746,38.64258 h 0.64454 l 17.0664,-38.64258 h 12.96192 z"
         class="cls-1" />
      <path
         style="fill:#ffffff"
         id="path20"
         d="m 828.18262,172.44775 -11.75391,-21.978 H 807.252 v 21.978 H 796.86621 V 116.09424 H 819.166 c 11.27148,0 18.19433,6.68164 18.19433,16.584 a 16.27226,16.27226 0 0 1 -10.86816,15.85938 l 12.96191,23.91015 z M 807.252,141.45312 h 10.707 c 5.47461,0 8.77442,-3.46142 8.77442,-8.21142 0,-4.99121 -3.29981,-8.13086 -8.77442,-8.13086 h -10.707 z"
         class="cls-1" />
      <path
         style="fill:#ffffff"
         id="path22"
         d="m 871.20215,173.25293 c -17.22754,0 -27.69336,-12.15625 -27.69336,-28.74072 0,-17.0669 11.10937,-29.22315 27.69336,-29.22315 12.71973,0 22.86328,6.76221 24.7959,19.24073 h -11.43164 c -1.77149,-5.79639 -6.52149,-9.41895 -13.36426,-9.41895 -10.0625,0 -16.8252,8.45264 -16.8252,19.40137 0,11.35156 7.24512,18.91894 16.8252,18.91894 7.32617,0 12.47851,-3.62256 14.25,-9.09717 h 11.43164 c -1.85156,12.07569 -12.63965,18.91895 -25.68164,18.91895 z"
         class="cls-1" />
      <path
         style="fill:#ffffff"
         id="path24"
         d="m 964.41992,162.94824 v 9.49951 h -38.48144 v -56.35351 h 10.38574 v 46.854 z"
         class="cls-1" />
      <path
         style="fill:#ffffff"
         id="path26"
         d="m 1008.5342,164.71924 v 7.72851 h -4.3477 c -3.7832,0 -6.7617,-1.127 -8.13084,-4.83007 -2.7373,3.46142 -6.92382,5.63525 -13.2832,5.63525 -8.21191,0 -14.25,-3.86426 -14.25,-11.83447 0,-7.72852 5.87695,-11.51221 13.28418,-12.23682 l 12.55859,-1.28809 v -1.69043 c 0,-4.42773 -2.81738,-6.60156 -6.76269,-6.60156 -4.34766,0 -6.60156,2.415 -7.24512,6.03809 h -10.30469 c 0.80469,-8.37256 7.24512,-14.24951 17.54981,-14.24951 9.41894,0 17.06736,4.74951 17.06736,15.53759 v 14.73243 c 0,2.09326 0.9658,3.05908 2.8985,3.05908 z m -14.16897,-9.74124 -9.0166,0.96631 c -3.70312,0.40234 -6.52148,1.93212 -6.52148,5.07177 0,3.22022 2.49609,4.34717 5.7168,4.34717 4.34668,0 9.82128,-2.09326 9.82128,-8.45312 z"
         class="cls-1" />
      <path
         style="fill:#ffffff"
         id="path28"
         d="m 1054.54,152.24072 c 0,12.80078 -8.1309,21.01221 -18.918,21.01221 -6.2803,0 -10.0635,-2.979 -11.9961,-5.55518 h -0.7246 l -0.8848,4.75 h -8.373 v -57.15869 h 10.3047 V 135.979 c 2.1738,-2.41552 6.1992,-4.58886 11.6738,-4.58886 10.546,0 18.918,7.72851 18.918,20.85058 z m -10.3047,0 c 0,-7.08447 -4.1055,-11.91455 -10.2236,-11.91455 -6.1182,0 -10.0635,4.83008 -10.0635,11.91455 0,7.24561 3.9453,12.07617 10.0635,12.07617 6.1182,0 10.2237,-4.83056 10.2237,-12.07617 z"
         class="cls-1" />
      <path
         style="fill:#ffffff"
         id="path30"
         d="m 1059.1416,152.24072 c 0,-12.39746 9.1777,-20.85058 21.2529,-20.85058 12.0762,0 21.2539,8.5332 21.2539,20.85058 0,12.47852 -9.0966,21.01221 -21.2539,21.01221 -11.9951,0 -21.2529,-8.61426 -21.2529,-21.01221 z m 32.2822,0 c 0,-6.68164 -4.4277,-11.91455 -11.0293,-11.91455 -6.6005,0 -10.9482,5.23291 -10.9482,11.91455 0,6.7627 4.3477,12.07617 10.9482,12.07617 6.6827,0 11.0293,-5.31347 11.0293,-12.07617 z"
         class="cls-1" />
      <path
         style="fill:#ffffff"
         id="path32"
         d="m 1107.8594,132.19482 h 9.3388 l 0.9659,5.71631 h 0.6445 c 2.4951,-4.02539 5.2324,-6.521 11.9951,-6.521 h 2.8985 v 10.30468 a 26.32841,26.32841 0 0 0 -4.3477,-0.32226 c -8.8555,0 -11.1904,6.521 -11.1904,12.31738 v 18.75781 h -10.3047 z"
         class="cls-1" />
      <path
         style="fill:#ffffff"
         id="path34"
         d="m 1175.7236,164.71924 v 7.72851 h -4.3476 c -3.7832,0 -6.7617,-1.127 -8.1309,-4.83007 -2.7373,3.46142 -6.9238,5.63525 -13.2832,5.63525 -8.2119,0 -14.25,-3.86426 -14.25,-11.83447 0,-7.72852 5.877,-11.51221 13.2842,-12.23682 l 12.5586,-1.28809 v -1.69043 c 0,-4.42773 -2.8174,-6.60156 -6.7627,-6.60156 -4.3476,0 -6.6015,2.415 -7.2451,6.03809 h -10.3047 c 0.8047,-8.37256 7.2451,-14.24951 17.5498,-14.24951 9.419,0 17.0674,4.74951 17.0674,15.53759 v 14.73243 c 0,2.09326 0.9658,3.05908 2.8984,3.05908 z m -14.1689,-9.74121 -9.0166,0.96631 c -3.7031,0.40234 -6.5215,1.93212 -6.5215,5.07177 0,3.22022 2.4961,4.34717 5.7168,4.34717 4.3467,0 9.8213,-2.09326 9.8213,-8.45312 z"
         class="cls-1" />
      <path
         style="fill:#ffffff"
         id="path36"
         d="m 1184.3106,161.499 v -21.17283 h -8.6143 v -8.13135 h 2.7373 c 4.9111,0 6.8428,-1.771 6.8428,-6.11816 v -4.83008 h 9.3388 v 10.94824 h 10.5459 v 8.13135 h -10.5459 v 19.8042 c 0,2.2544 0.5635,4.99121 5.3936,4.99121 a 16.654,16.654 0 0 0 3.9453,-0.56347 v 7.80908 a 31.205,31.205 0 0 1 -7.085,0.88574 c -11.2705,0 -12.5585,-7.32617 -12.5585,-11.75393 z"
         class="cls-1" />
      <path
         style="fill:#ffffff"
         id="path38"
         d="m 1206.9707,152.24072 c 0,-12.39746 9.1777,-20.85058 21.2529,-20.85058 12.0762,0 21.2539,8.5332 21.2539,20.85058 0,12.47852 -9.0976,21.01221 -21.2539,21.01221 -11.9951,0 -21.2529,-8.61426 -21.2529,-21.01221 z m 32.2822,0 c 0,-6.68164 -4.4277,-11.91455 -11.0293,-11.91455 -6.6005,0 -10.9482,5.23291 -10.9482,11.91455 0,6.7627 4.3477,12.07617 10.9482,12.07617 6.6827,0 11.0293,-5.31347 11.0293,-12.07617 z"
         class="cls-1" />
      <path
         style="fill:#ffffff"
         id="path40"
         d="m 1255.6875,132.19482 h 9.3389 l 0.9658,5.71631 h 0.6445 c 2.4951,-4.02539 5.2324,-6.521 11.9951,-6.521 h 2.8985 v 10.30468 a 26.32829,26.32829 0 0 0 -4.3477,-0.32226 c -8.8554,0 -11.1904,6.521 -11.1904,12.31738 v 18.75781 h -10.3047 z"
         class="cls-1" />
      <path
         style="fill:#ffffff"
         id="path42"
         d="m 1288.25,188.46826 v -7.64795 a 20.90766,20.90766 0 0 0 4.1865,0.48291 c 3.7832,0 7.2451,-1.36865 8.8555,-5.39355 l 1.3691,-3.46192 h -3.2207 l -15.377,-40.25293 h 10.627 l 10.9492,29.70655 h 0.6436 l 10.2246,-29.70655 h 10.626 l -16.2617,45.24418 c -1.207,3.54249 -4.3477,11.915 -16.1006,11.915 a 24.53849,24.53849 0 0 1 -6.5215,-0.88574 z"
         class="cls-1" />
      <path
         style="fill:#ffffff"
         id="path44"
         d="m 722.83105,234.74072 c 0,-12.39746 9.17774,-20.85058 21.25293,-20.85058 12.07618,0 21.25391,8.5332 21.25391,20.85058 0,12.47852 -9.09668,21.01172 -21.25391,21.01172 -11.99511,0 -21.25293,-8.61328 -21.25293,-21.01172 z m 32.28223,0 c 0,-6.68164 -4.42773,-11.915 -11.0293,-11.915 -6.60058,0 -10.94824,5.2334 -10.94824,11.915 0,6.7627 4.34766,12.07617 10.94824,12.07617 6.68262,0 11.0293,-5.31347 11.0293,-12.07617 z"
         class="cls-1" />
      <path
         style="fill:#ffffff"
         id="path46"
         d="m 786.03223,214.69482 h 10.22461 v 8.13086 h -10.22461 v 32.12207 h -10.30469 v -32.12207 h -8.45313 v -8.13086 h 8.45313 v -4.34668 c 0,-8.373 5.55469,-12.55957 13.44434,-12.55957 a 23.35482,23.35482 0 0 1 7.72851,1.36914 l -1.77148,7.48731 a 13.12067,13.12067 0 0 0 -4.10547,-0.64453 c -2.97852,0 -4.99121,1.5293 -4.99121,4.91113 z"
         class="cls-1" />
      <path
         style="fill:#ffffff"
         id="path48"
         d="m 884.72656,254.94775 h -10.38574 v -37.43457 h -0.64355 l -14.00782,30.99414 h -10.707 L 834.89358,217.51318 H 834.25 v 37.43457 h -10.38574 v -56.35351 h 13.042 l 17.14746,38.64258 h 0.64453 l 17.06641,-38.64258 h 12.96191 z"
         class="cls-1" />
      <path
         style="fill:#ffffff"
         id="path50"
         d="m 892.39355,234.74072 c 0,-12.39746 9.17774,-20.85058 21.25293,-20.85058 12.07618,0 21.25391,8.5332 21.25391,20.85058 0,12.47852 -9.09668,21.01172 -21.25391,21.01172 -11.99511,0 -21.25293,-8.61328 -21.25293,-21.01172 z m 32.28223,0 c 0,-6.68164 -4.42773,-11.915 -11.0293,-11.915 -6.60058,0 -10.94824,5.2334 -10.94824,11.915 0,6.7627 4.34766,12.07617 10.94824,12.07617 6.68262,0 11.0293,-5.31347 11.0293,-12.07617 z"
         class="cls-1" />
      <path
         style="fill:#ffffff"
         id="path52"
         d="m 941.21582,197.78857 h 10.30469 v 57.15918 h -10.30469 z"
         class="cls-1" />
      <path
         style="fill:#ffffff"
         id="path54"
         d="m 997.25391,242.228 c -1.60938,8.292 -8.53321,13.52441 -18.75782,13.52441 -11.99511,0 -20.68945,-8.13086 -20.68945,-20.52832 0,-13.2832 9.17774,-21.334 20.28711,-21.334 9.90234,0 19.08008,6.27929 19.08008,20.68945 0,0.9668 -0.0811,1.85156 -0.16113,2.97949 h -28.98243 c 0.40332,5.7959 4.18653,9.98242 10.46582,9.98242 4.50879,0 7.72852,-1.85156 8.85645,-5.31347 z m -29.14258,-11.59278 h 19.24121 c -0.24219,-4.99121 -3.94531,-8.5332 -9.25879,-8.5332 a 9.7129,9.7129 0 0 0 -9.98242,8.53323 z"
         class="cls-1" />
      <path
         style="fill:#ffffff"
         id="path56"
         d="m 1002.1289,234.98291 c 0,-12.63965 9.1777,-21.09277 20.9317,-21.09277 9.3378,0 18.1943,4.99121 19.4824,15.53711 h -10.3047 c -0.8858,-3.70313 -4.3477,-6.60157 -9.1777,-6.60157 -6.1192,0 -10.627,4.99219 -10.627,12.15723 0,7.084 4.1865,11.834 10.788,11.834 4.669,0 7.8086,-2.09375 9.0967,-5.79687 h 10.3848 c -1.3682,9.0166 -9.0166,14.73242 -19.4815,14.73242 -12.5595,-2e-5 -21.0927,-8.6133 -21.0927,-20.76955 z"
         class="cls-1" />
      <path
         style="fill:#ffffff"
         id="path58"
         d="m 1086.7041,254.94775 h -9.4189 l -0.8858,-4.75 h -0.6435 c -2.415,3.13965 -5.7969,5.55469 -11.835,5.55469 -9.5801,0 -15.6983,-6.11816 -15.6983,-16.66406 v -24.39356 h 10.3047 v 22.29981 c 0,6.60156 3.7842,9.82226 8.6943,9.82226 4.8311,0 9.1778,-3.13964 9.1778,-10.30468 v -21.81739 h 10.3047 z"
         class="cls-1" />
      <path
         style="fill:#ffffff"
         id="path60"
         d="m 1094.6231,197.78857 h 10.3046 v 57.15918 h -10.3046 z"
         class="cls-1" />
      <path
         style="fill:#ffffff"
         id="path62"
         d="m 1150.9346,247.21924 v 7.72851 h -4.3477 c -3.7832,0 -6.7617,-1.127 -8.1308,-4.83007 -2.7373,3.46191 -6.9239,5.63476 -13.2832,5.63476 -8.212,0 -14.25,-3.86426 -14.25,-11.834 0,-7.72852 5.8769,-11.51172 13.2841,-12.23633 l 12.5586,-1.28809 v -1.6914 c 0,-4.42774 -2.8174,-6.60059 -6.7627,-6.60059 -4.3476,0 -6.6015,2.415 -7.2451,6.03711 h -10.3047 c 0.8047,-8.37207 7.2451,-14.249 17.5498,-14.249 9.419,0 17.0674,4.75 17.0674,15.53711 v 14.73242 c 0,2.09375 0.9658,3.05957 2.8985,3.05957 z m -14.169,-9.74121 -9.0166,0.96582 c -3.7031,0.40234 -6.5215,1.93261 -6.5215,5.07226 0,3.21973 2.4961,4.34766 5.7168,4.34766 4.3467,0 9.8213,-2.09375 9.8213,-8.45313 z"
         class="cls-1" />
      <path
         style="fill:#ffffff"
         id="path64"
         d="m 1156.043,214.69482 h 9.3389 l 0.9658,5.71582 h 0.6445 c 2.4951,-4.02539 5.2324,-6.5205 11.9951,-6.5205 h 2.8985 v 10.30468 a 26.38167,26.38167 0 0 0 -4.3477,-0.32226 c -8.8554,0 -11.1904,6.52148 -11.1904,12.31738 v 18.75781 h -10.3047 z"
         class="cls-1" />
      <path
         style="fill:#ffffff"
         id="path66"
         d="m 766.30371,321.83008 c 0,9.90234 -6.84277,15.61816 -18.19433,15.61816 H 725.085 v -56.354 h 23.18555 c 11.11035,0 16.42285,5.7959 16.42285,14.08789 0,6.76318 -3.70313,10.144 -7.80859,12.07666 v 0.4834 c 4.02535,1.44824 9.4189,5.39355 9.4189,14.08789 z m -30.833,-17.63086 h 11.18946 c 4.83105,0 7.40722,-2.89746 7.40722,-7.32568 0,-4.50879 -2.89843,-7.2461 -7.24609,-7.2461 h -11.3506 z m 19.96485,16.82617 c 0,-4.75 -3.05957,-8.292 -8.292,-8.292 H 735.4707 V 328.915 h 11.67285 c 5.47461,0 8.292,-3.30074 8.292,-7.88961 z"
         class="cls-1" />
      <path
         style="fill:#ffffff"
         id="path68"
         d="m 772.249,285.84424 a 6.356,6.356 0 0 1 6.35938,-6.28028 6.22,6.22 0 0 1 6.19922,6.28028 6.30761,6.30761 0 0 1 -6.19922,6.19824 6.45032,6.45032 0 0 1 -6.35938,-6.19824 z m 1.207,11.35058 h 10.30469 v 40.25342 h -10.30464 z"
         class="cls-1" />
      <path
         style="fill:#ffffff"
         id="path70"
         d="m 789.709,317.24121 c 0,-12.39746 9.17774,-20.85107 21.25293,-20.85107 12.07618,0 21.25391,8.53369 21.25391,20.85107 0,12.47852 -9.09766,21.01172 -21.25391,21.01172 -11.99513,0 -21.25293,-8.61328 -21.25293,-21.01172 z m 32.28223,0 c 0,-6.68164 -4.42773,-11.915 -11.0293,-11.915 -6.60058,0 -10.94824,5.2334 -10.94824,11.915 0,6.7627 4.34766,12.07617 10.94824,12.07617 6.6826,0 11.02928,-5.31347 11.02928,-12.07617 z"
         class="cls-1" />
      <path
         style="fill:#ffffff"
         id="path72"
         d="m 838.53125,280.28857 h 10.30469 v 57.15967 h -10.30469 z"
         class="cls-1" />
      <path
         style="fill:#ffffff"
         id="path74"
         d="m 854.98438,317.24121 c 0,-12.39746 9.17773,-20.85107 21.25292,-20.85107 12.07618,0 21.25391,8.53369 21.25391,20.85107 0,12.47852 -9.09766,21.01172 -21.25391,21.01172 -11.99511,0 -21.25292,-8.61328 -21.25292,-21.01172 z m 32.28222,0 c 0,-6.68164 -4.42773,-11.915 -11.0293,-11.915 -6.60058,0 -10.94824,5.2334 -10.94824,11.915 0,6.7627 4.34766,12.07617 10.94824,12.07617 6.68262,0 11.0293,-5.31347 11.0293,-12.07617 z"
         class="cls-1" />
      <path
         style="fill:#ffffff"
         id="path76"
         d="m 934.88965,302.75 a 12.12294,12.12294 0 0 1 2.57617,7.56836 c 0,8.5332 -7.32617,13.52441 -16.90625,13.52441 a 25.01742,25.01742 0 0 1 -6.76269,-0.88574 2.94656,2.94656 0 0 0 -1.93165,2.65723 c 0,2.334 2.57618,3.05859 5.31348,3.05859 h 7.88867 c 9.66114,0 14.65235,4.66992 14.65235,11.915 0,8.61426 -7.24512,13.7666 -18.91895,13.7666 -12.7998,0 -18.75781,-6.36035 -19.5625,-13.52539 l 6.11817,-5.39355 a 8.318,8.318 0 0 1 -4.58887,-7.40625 c 0,-3.78418 2.49609,-6.2793 5.39453,-7.88965 a 12.02177,12.02177 0 0 1 -4.75,-9.82129 c 0,-7.88965 6.35937,-13.92822 16.66406,-13.92822 a 21.01381,21.01381 0 0 1 9.33887,2.01269 20.94091,20.94091 0 0 0 6.92383,-5.71582 l 5.07129,5.63477 a 23.38587,23.38587 0 0 1 -6.52051,4.42826 z m -11.11035,33.97363 h -7.3252 l -5.31347,4.50879 c 0.88574,2.81738 3.86425,5.39356 9.74121,5.39356 4.91015,0 9.0166,-1.77149 9.0166,-5.47461 0,-3.38086 -3.13965,-4.42774 -6.11914,-4.42774 z m 3.86425,-26.5664 c 0,-3.70313 -2.65625,-6.36035 -7.084,-6.36035 -4.50879,0 -7.32617,2.65722 -7.32617,6.36035 0,3.542 2.81738,6.19824 7.32617,6.19824 4.42775,0 7.084,-2.65625 7.084,-6.19824 z"
         class="cls-1" />
      <path
         style="fill:#ffffff"
         id="path78"
         d="m 948.16992,353.46875 v -7.64746 a 20.94006,20.94006 0 0 0 4.18653,0.48242 c 3.7832,0 7.24511,-1.36816 8.85546,-5.39355 l 1.36914,-3.46192 h -3.2207 l -15.377,-40.25342 h 10.627 l 10.94922,29.70752 h 0.64356 l 10.2246,-29.70752 h 10.626 L 970.792,342.43945 c -1.207,3.542 -4.34765,11.915 -16.10058,11.915 a 24.51844,24.51844 0 0 1 -6.5215,-0.8857 z"
         class="cls-1" />
    </g>
  </g>
</svg>
